<?xml version="1.0" encoding="UTF-8"?>
<svg width="390" height="844" viewBox="0 0 390 844" fill="none" xmlns="http://www.w3.org/2000/svg">
  <!-- Background -->
  <rect width="390" height="844" fill="#F5F0E6"/>

  <!-- Status Bar -->
  <rect width="390" height="44" fill="#5D4E37"/>
  <text x="20" y="28" fill="#F5F0E6" font-family="SF Pro, Inter, sans-serif" font-size="12" font-weight="500">9:41</text>
  <text x="340" y="28" fill="#F5F0E6" font-family="SF Pro, Inter, sans-serif" font-size="12" font-weight="500">85%</text>

  <!-- Header -->
  <rect y="44" width="390" height="72" fill="#5D4E37"/>
  <text x="20" y="75" fill="#D4A84B" font-family="Playfair Display, Georgia, serif" font-size="11" font-weight="400" letter-spacing="2">KISAN MITRA</text>
  <text x="20" y="100" fill="#F5F0E6" font-family="Playfair Display, Georgia, serif" font-size="22" font-weight="600">Good Morning, Ramesh</text>

  <!-- Language Selector -->
  <rect x="300" y="64" width="70" height="32" rx="4" fill="#C45D3E"/>
  <text x="335" y="85" fill="#F5F0E6" font-family="Inter, sans-serif" font-size="11" font-weight="500" text-anchor="middle">हिन्दी</text>

  <!-- Weather Card -->
  <rect x="16" y="132" width="358" height="88" rx="8" fill="#E8E0D0"/>
  <rect x="16" y="132" width="358" height="88" rx="8" stroke="#D4A84B" stroke-width="1"/>

  <text x="32" y="156" fill="#5D4E37" font-family="Inter, sans-serif" font-size="11" font-weight="500" letter-spacing="1">CURRENT CONDITIONS</text>
  <text x="32" y="186" fill="#2D2D2D" font-family="JetBrains Mono, monospace" font-size="28" font-weight="600">28°C</text>
  <text x="100" y="180" fill="#6B7B3C" font-family="Inter, sans-serif" font-size="12">Partly Cloudy</text>
  <text x="100" y="196" fill="#5D4E37" font-family="Inter, sans-serif" font-size="11">Humidity: 72%</text>

  <!-- Weather forecast mini -->
  <line x1="220" y1="148" x2="220" y2="204" stroke="#D4A84B" stroke-width="1"/>
  <text x="240" y="156" fill="#5D4E37" font-family="Inter, sans-serif" font-size="10" font-weight="500">FORECAST</text>
  <text x="240" y="176" fill="#2D2D2D" font-family="JetBrains Mono, monospace" font-size="11">Tomorrow: 30°C</text>
  <text x="240" y="192" fill="#2D2D2D" font-family="JetBrains Mono, monospace" font-size="11">Rain: 40%</text>

  <!-- Alert Banner -->
  <rect x="16" y="236" width="358" height="64" rx="8" fill="#C45D3E" fill-opacity="0.12"/>
  <rect x="16" y="236" width="4" height="64" rx="2" fill="#C45D3E"/>
  <text x="36" y="260" fill="#C45D3E" font-family="Inter, sans-serif" font-size="11" font-weight="600" letter-spacing="0.5">ADVISORY</text>
  <text x="36" y="280" fill="#5D4E37" font-family="Inter, sans-serif" font-size="13" font-weight="500">Late blight risk elevated for tomato crops</text>
  <text x="36" y="294" fill="#5D4E37" font-family="Inter, sans-serif" font-size="11" font-weight="400">Preventive spray recommended within 48 hours</text>

  <!-- Agent Quick Actions Section -->
  <text x="20" y="332" fill="#5D4E37" font-family="Playfair Display, Georgia, serif" font-size="16" font-weight="600">Quick Actions</text>

  <!-- Agent Cards Grid -->
  <!-- Crop Doctor -->
  <rect x="16" y="348" width="172" height="120" rx="8" fill="#E8E0D0"/>
  <rect x="16" y="348" width="172" height="120" rx="8" stroke="#6B7B3C" stroke-width="1"/>
  <circle cx="52" cy="388" r="24" fill="#6B7B3C" fill-opacity="0.15"/>
  <rect x="40" y="376" width="24" height="24" rx="4" fill="#6B7B3C"/>
  <!-- Camera icon simplified -->
  <circle cx="52" cy="388" r="6" fill="#E8E0D0"/>
  <text x="32" y="432" fill="#5D4E37" font-family="Playfair Display, Georgia, serif" font-size="14" font-weight="600">Crop Doctor</text>
  <text x="32" y="450" fill="#5D4E37" font-family="Inter, sans-serif" font-size="11">Diagnose plant health</text>

  <!-- Voice Query -->
  <rect x="202" y="348" width="172" height="120" rx="8" fill="#E8E0D0"/>
  <rect x="202" y="348" width="172" height="120" rx="8" stroke="#D4A84B" stroke-width="1"/>
  <circle cx="238" cy="388" r="24" fill="#D4A84B" fill-opacity="0.15"/>
  <rect x="226" y="376" width="24" height="24" rx="4" fill="#D4A84B"/>
  <!-- Mic icon simplified -->
  <rect x="234" y="382" width="8" height="12" rx="4" fill="#E8E0D0"/>
  <text x="218" y="432" fill="#5D4E37" font-family="Playfair Display, Georgia, serif" font-size="14" font-weight="600">Ask Question</text>
  <text x="218" y="450" fill="#5D4E37" font-family="Inter, sans-serif" font-size="11">Voice in your language</text>

  <!-- My Calendar -->
  <rect x="16" y="484" width="172" height="120" rx="8" fill="#E8E0D0"/>
  <rect x="16" y="484" width="172" height="120" rx="8" stroke="#C45D3E" stroke-width="1"/>
  <circle cx="52" cy="524" r="24" fill="#C45D3E" fill-opacity="0.15"/>
  <rect x="40" y="512" width="24" height="24" rx="4" fill="#C45D3E"/>
  <!-- Calendar icon -->
  <rect x="44" y="518" width="16" height="14" rx="2" fill="#E8E0D0"/>
  <line x1="44" y1="522" x2="60" y2="522" stroke="#C45D3E" stroke-width="2"/>
  <text x="32" y="568" fill="#5D4E37" font-family="Playfair Display, Georgia, serif" font-size="14" font-weight="600">My Calendar</text>
  <text x="32" y="586" fill="#5D4E37" font-family="Inter, sans-serif" font-size="11">Growing schedule</text>

  <!-- Shop Seeds -->
  <rect x="202" y="484" width="172" height="120" rx="8" fill="#E8E0D0"/>
  <rect x="202" y="484" width="172" height="120" rx="8" stroke="#5D4E37" stroke-width="1"/>
  <circle cx="238" cy="524" r="24" fill="#5D4E37" fill-opacity="0.15"/>
  <rect x="226" y="512" width="24" height="24" rx="4" fill="#5D4E37"/>
  <!-- Seed icon -->
  <ellipse cx="238" cy="524" rx="6" ry="8" fill="#E8E0D0"/>
  <text x="218" y="568" fill="#5D4E37" font-family="Playfair Display, Georgia, serif" font-size="14" font-weight="600">Shop Seeds</text>
  <text x="218" y="586" fill="#5D4E37" font-family="Inter, sans-serif" font-size="11">Browse catalog</text>

  <!-- My Crops Section -->
  <text x="20" y="636" fill="#5D4E37" font-family="Playfair Display, Georgia, serif" font-size="16" font-weight="600">My Active Crops</text>

  <!-- Crop Status Cards -->
  <rect x="16" y="652" width="358" height="72" rx="8" fill="#FFFFFF"/>
  <rect x="16" y="652" width="358" height="72" rx="8" stroke="#E8E0D0" stroke-width="1"/>

  <!-- Tomato crop card -->
  <rect x="28" y="664" width="48" height="48" rx="8" fill="#C45D3E" fill-opacity="0.1"/>
  <circle cx="52" cy="688" r="16" fill="#C45D3E" fill-opacity="0.3"/>

  <text x="92" y="680" fill="#5D4E37" font-family="Playfair Display, Georgia, serif" font-size="14" font-weight="600">Tomato - Hybrid 512</text>
  <text x="92" y="698" fill="#6B7B3C" font-family="Inter, sans-serif" font-size="11">Flowering Stage</text>
  <text x="92" y="714" fill="#5D4E37" font-family="JetBrains Mono, monospace" font-size="10">Day 45 of 120</text>

  <!-- Progress bar -->
  <rect x="260" y="680" width="100" height="6" rx="3" fill="#E8E0D0"/>
  <rect x="260" y="680" width="38" height="6" rx="3" fill="#6B7B3C"/>
  <text x="310" y="706" fill="#5D4E37" font-family="JetBrains Mono, monospace" font-size="10" text-anchor="middle">38%</text>

  <!-- Bottom Navigation -->
  <rect y="764" width="390" height="80" fill="#FFFFFF"/>
  <rect y="764" width="390" height="1" fill="#E8E0D0"/>

  <!-- Nav Items -->
  <!-- Home - Active -->
  <rect x="30" y="776" width="48" height="48" rx="8" fill="#C45D3E" fill-opacity="0.1"/>
  <rect x="46" y="788" width="16" height="16" rx="2" fill="#C45D3E"/>
  <text x="54" y="820" fill="#C45D3E" font-family="Inter, sans-serif" font-size="10" font-weight="500" text-anchor="middle">Home</text>

  <!-- Shop -->
  <rect x="110" y="788" width="16" height="16" rx="2" fill="#5D4E37" fill-opacity="0.4"/>
  <text x="118" y="820" fill="#5D4E37" font-family="Inter, sans-serif" font-size="10" text-anchor="middle">Shop</text>

  <!-- Learn -->
  <rect x="186" y="788" width="16" height="16" rx="2" fill="#5D4E37" fill-opacity="0.4"/>
  <text x="194" y="820" fill="#5D4E37" font-family="Inter, sans-serif" font-size="10" text-anchor="middle">Learn</text>

  <!-- Calendar -->
  <rect x="262" y="788" width="16" height="16" rx="2" fill="#5D4E37" fill-opacity="0.4"/>
  <text x="270" y="820" fill="#5D4E37" font-family="Inter, sans-serif" font-size="10" text-anchor="middle">Calendar</text>

  <!-- Profile -->
  <circle cx="338" cy="796" r="10" fill="#5D4E37" fill-opacity="0.4"/>
  <text x="338" y="820" fill="#5D4E37" font-family="Inter, sans-serif" font-size="10" text-anchor="middle">Profile</text>

</svg>
