<?xml version="1.0" encoding="UTF-8"?>
<svg width="390" height="1200" viewBox="0 0 390 1200" fill="none" xmlns="http://www.w3.org/2000/svg">
  <!-- Background -->
  <rect width="390" height="1200" fill="#F5F0E6"/>

  <!-- Status Bar -->
  <rect width="390" height="44" fill="#5D4E37"/>
  <text x="20" y="28" fill="#F5F0E6" font-family="SF Pro, Inter, sans-serif" font-size="12" font-weight="500">9:41</text>
  <text x="340" y="28" fill="#F5F0E6" font-family="SF Pro, Inter, sans-serif" font-size="12" font-weight="500">85%</text>

  <!-- Header -->
  <rect y="44" width="390" height="72" fill="#FFFFFF"/>
  <rect y="115" width="390" height="1" fill="#E8E0D0"/>

  <!-- Back Button -->
  <polygon points="28,80 20,80 24,76 20,80 24,84" fill="#5D4E37"/>
  <text x="40" y="84" fill="#5D4E37" font-family="Inter, sans-serif" font-size="14">Back</text>

  <text x="195" y="76" fill="#5D4E37" font-family="Playfair Display, Georgia, serif" font-size="18" font-weight="600" text-anchor="middle">Disease Library</text>
  <text x="195" y="100" fill="#5D4E37" font-family="Inter, sans-serif" font-size="12" fill-opacity="0.6" text-anchor="middle">Interactive crop health reference</text>

  <!-- Crop Selector -->
  <rect x="16" y="128" width="358" height="56" rx="8" fill="#FFFFFF"/>
  <rect x="16" y="128" width="358" height="56" rx="8" stroke="#E8E0D0" stroke-width="1"/>

  <text x="32" y="148" fill="#5D4E37" font-family="Inter, sans-serif" font-size="10" font-weight="500" letter-spacing="1">SELECT CROP</text>

  <!-- Crop pills -->
  <rect x="32" y="156" width="64" height="24" rx="12" fill="#C45D3E"/>
  <text x="64" y="172" fill="#FFFFFF" font-family="Inter, sans-serif" font-size="11" font-weight="500" text-anchor="middle">Tomato</text>

  <rect x="104" y="156" width="54" height="24" rx="12" fill="#E8E0D0"/>
  <text x="131" y="172" fill="#5D4E37" font-family="Inter, sans-serif" font-size="11" text-anchor="middle">Chilli</text>

  <rect x="166" y="156" width="48" height="24" rx="12" fill="#E8E0D0"/>
  <text x="190" y="172" fill="#5D4E37" font-family="Inter, sans-serif" font-size="11" text-anchor="middle">Okra</text>

  <rect x="222" y="156" width="58" height="24" rx="12" fill="#E8E0D0"/>
  <text x="251" y="172" fill="#5D4E37" font-family="Inter, sans-serif" font-size="11" text-anchor="middle">Cotton</text>

  <rect x="288" y="156" width="56" height="24" rx="12" fill="#E8E0D0"/>
  <text x="316" y="172" fill="#5D4E37" font-family="Inter, sans-serif" font-size="11" text-anchor="middle">Maize</text>

  <!-- Growth Stage Timeline -->
  <text x="20" y="216" fill="#5D4E37" font-family="Playfair Display, Georgia, serif" font-size="16" font-weight="600">Growth Stages</text>
  <text x="20" y="234" fill="#5D4E37" font-family="Inter, sans-serif" font-size="11" fill-opacity="0.6">Tap a stage to see common diseases</text>

  <!-- Timeline Container -->
  <rect x="16" y="248" width="358" height="120" rx="8" fill="#FFFFFF"/>
  <rect x="16" y="248" width="358" height="120" rx="8" stroke="#E8E0D0" stroke-width="1"/>

  <!-- Timeline Line -->
  <line x1="48" y1="300" x2="342" y2="300" stroke="#E8E0D0" stroke-width="2"/>

  <!-- Stage 1: Seedling -->
  <circle cx="60" cy="300" r="16" fill="#E8E0D0"/>
  <circle cx="60" cy="300" r="12" fill="#FFFFFF"/>
  <text x="60" y="304" fill="#5D4E37" font-family="JetBrains Mono, monospace" font-size="10" font-weight="600" text-anchor="middle">1</text>
  <text x="60" y="336" fill="#5D4E37" font-family="Inter, sans-serif" font-size="9" text-anchor="middle">Seedling</text>
  <text x="60" y="350" fill="#5D4E37" font-family="JetBrains Mono, monospace" font-size="8" fill-opacity="0.6" text-anchor="middle">0-21 days</text>

  <!-- Stage 2: Vegetative - SELECTED -->
  <circle cx="130" cy="300" r="18" fill="#6B7B3C"/>
  <text x="130" y="304" fill="#FFFFFF" font-family="JetBrains Mono, monospace" font-size="10" font-weight="600" text-anchor="middle">2</text>
  <text x="130" y="336" fill="#6B7B3C" font-family="Inter, sans-serif" font-size="9" font-weight="600" text-anchor="middle">Vegetative</text>
  <text x="130" y="350" fill="#6B7B3C" font-family="JetBrains Mono, monospace" font-size="8" text-anchor="middle">22-45 days</text>

  <!-- Stage 3: Flowering -->
  <circle cx="200" cy="300" r="16" fill="#E8E0D0"/>
  <circle cx="200" cy="300" r="12" fill="#FFFFFF"/>
  <text x="200" y="304" fill="#5D4E37" font-family="JetBrains Mono, monospace" font-size="10" font-weight="600" text-anchor="middle">3</text>
  <text x="200" y="336" fill="#5D4E37" font-family="Inter, sans-serif" font-size="9" text-anchor="middle">Flowering</text>
  <text x="200" y="350" fill="#5D4E37" font-family="JetBrains Mono, monospace" font-size="8" fill-opacity="0.6" text-anchor="middle">46-65 days</text>

  <!-- Stage 4: Fruiting -->
  <circle cx="270" cy="300" r="16" fill="#E8E0D0"/>
  <circle cx="270" cy="300" r="12" fill="#FFFFFF"/>
  <text x="270" y="304" fill="#5D4E37" font-family="JetBrains Mono, monospace" font-size="10" font-weight="600" text-anchor="middle">4</text>
  <text x="270" y="336" fill="#5D4E37" font-family="Inter, sans-serif" font-size="9" text-anchor="middle">Fruiting</text>
  <text x="270" y="350" fill="#5D4E37" font-family="JetBrains Mono, monospace" font-size="8" fill-opacity="0.6" text-anchor="middle">66-90 days</text>

  <!-- Stage 5: Harvest -->
  <circle cx="340" cy="300" r="16" fill="#E8E0D0"/>
  <circle cx="340" cy="300" r="12" fill="#FFFFFF"/>
  <text x="340" y="304" fill="#5D4E37" font-family="JetBrains Mono, monospace" font-size="10" font-weight="600" text-anchor="middle">5</text>
  <text x="340" y="336" fill="#5D4E37" font-family="Inter, sans-serif" font-size="9" text-anchor="middle">Harvest</text>
  <text x="340" y="350" fill="#5D4E37" font-family="JetBrains Mono, monospace" font-size="8" fill-opacity="0.6" text-anchor="middle">90+ days</text>

  <!-- Diseases for Selected Stage -->
  <text x="20" y="400" fill="#5D4E37" font-family="Playfair Display, Georgia, serif" font-size="16" font-weight="600">Vegetative Stage Diseases</text>
  <text x="20" y="418" fill="#5D4E37" font-family="Inter, sans-serif" font-size="11" fill-opacity="0.6">3 common conditions for tomato at this stage</text>

  <!-- Disease Card 1: Early Blight -->
  <rect x="16" y="432" width="358" height="200" rx="8" fill="#FFFFFF"/>
  <rect x="16" y="432" width="358" height="200" rx="8" stroke="#C45D3E" stroke-width="1"/>

  <!-- Risk indicator -->
  <rect x="16" y="432" width="358" height="4" rx="2" fill="#C45D3E"/>

  <!-- Disease header -->
  <text x="32" y="460" fill="#5D4E37" font-family="Playfair Display, Georgia, serif" font-size="15" font-weight="600">Early Blight</text>
  <text x="32" y="478" fill="#5D4E37" font-family="Inter, sans-serif" font-size="11" font-style="italic">Alternaria solani</text>

  <!-- Risk badge -->
  <rect x="280" y="444" width="80" height="24" rx="4" fill="#C45D3E" fill-opacity="0.1"/>
  <text x="320" y="460" fill="#C45D3E" font-family="Inter, sans-serif" font-size="11" font-weight="500" text-anchor="middle">HIGH RISK</text>

  <!-- Symptoms Section -->
  <text x="32" y="506" fill="#5D4E37" font-family="Inter, sans-serif" font-size="10" font-weight="500" letter-spacing="1">SYMPTOMS</text>

  <!-- Visual comparison -->
  <rect x="32" y="516" width="80" height="64" rx="4" fill="#6B7B3C" fill-opacity="0.15"/>
  <text x="72" y="554" fill="#6B7B3C" font-family="Inter, sans-serif" font-size="9" text-anchor="middle">Healthy</text>

  <rect x="120" y="516" width="80" height="64" rx="4" fill="#C45D3E" fill-opacity="0.15"/>
  <!-- Diseased leaf representation -->
  <ellipse cx="160" cy="542" rx="24" ry="20" fill="#6B7B3C" fill-opacity="0.3"/>
  <circle cx="150" cy="538" r="5" fill="#5D4E37" fill-opacity="0.5"/>
  <circle cx="168" cy="548" r="6" fill="#5D4E37" fill-opacity="0.6"/>
  <circle cx="155" cy="550" r="4" fill="#5D4E37" fill-opacity="0.4"/>
  <text x="160" y="570" fill="#C45D3E" font-family="Inter, sans-serif" font-size="9" text-anchor="middle">Affected</text>

  <!-- Symptom description -->
  <text x="216" y="532" fill="#5D4E37" font-family="Inter, sans-serif" font-size="11">Concentric rings on</text>
  <text x="216" y="548" fill="#5D4E37" font-family="Inter, sans-serif" font-size="11">older leaves</text>
  <text x="216" y="572" fill="#5D4E37" font-family="Inter, sans-serif" font-size="11" fill-opacity="0.7">Yellowing around spots</text>

  <!-- Trigger conditions -->
  <text x="32" y="604" fill="#5D4E37" font-family="Inter, sans-serif" font-size="10" font-weight="500" letter-spacing="1">TRIGGER CONDITIONS</text>

  <rect x="32" y="612" width="76" height="16" rx="4" fill="#5D4E37" fill-opacity="0.08"/>
  <text x="70" y="624" fill="#5D4E37" font-family="JetBrains Mono, monospace" font-size="9" text-anchor="middle">Humidity >80%</text>

  <rect x="116" y="612" width="72" height="16" rx="4" fill="#5D4E37" fill-opacity="0.08"/>
  <text x="152" y="624" fill="#5D4E37" font-family="JetBrains Mono, monospace" font-size="9" text-anchor="middle">Temp 24-29°C</text>

  <rect x="196" y="612" width="68" height="16" rx="4" fill="#5D4E37" fill-opacity="0.08"/>
  <text x="230" y="624" fill="#5D4E37" font-family="JetBrains Mono, monospace" font-size="9" text-anchor="middle">Poor drainage</text>

  <!-- Disease Card 2: Septoria Leaf Spot -->
  <rect x="16" y="648" width="358" height="160" rx="8" fill="#FFFFFF"/>
  <rect x="16" y="648" width="358" height="160" rx="8" stroke="#D4A84B" stroke-width="1"/>

  <!-- Risk indicator -->
  <rect x="16" y="648" width="358" height="4" rx="2" fill="#D4A84B"/>

  <text x="32" y="676" fill="#5D4E37" font-family="Playfair Display, Georgia, serif" font-size="15" font-weight="600">Septoria Leaf Spot</text>
  <text x="32" y="694" fill="#5D4E37" font-family="Inter, sans-serif" font-size="11" font-style="italic">Septoria lycopersici</text>

  <!-- Risk badge -->
  <rect x="268" y="660" width="92" height="24" rx="4" fill="#D4A84B" fill-opacity="0.1"/>
  <text x="314" y="676" fill="#D4A84B" font-family="Inter, sans-serif" font-size="11" font-weight="500" text-anchor="middle">MODERATE RISK</text>

  <text x="32" y="722" fill="#5D4E37" font-family="Inter, sans-serif" font-size="10" font-weight="500" letter-spacing="1">SYMPTOMS</text>
  <text x="32" y="742" fill="#5D4E37" font-family="Inter, sans-serif" font-size="11">Small circular spots with dark borders</text>
  <text x="32" y="758" fill="#5D4E37" font-family="Inter, sans-serif" font-size="11" fill-opacity="0.7">Starts on lower leaves, progresses upward</text>

  <text x="32" y="786" fill="#5D4E37" font-family="Inter, sans-serif" font-size="10" font-weight="500" letter-spacing="1">TRIGGER CONDITIONS</text>
  <rect x="32" y="794" width="76" height="16" rx="4" fill="#5D4E37" fill-opacity="0.08"/>
  <text x="70" y="806" fill="#5D4E37" font-family="JetBrains Mono, monospace" font-size="9" text-anchor="middle">Wet weather</text>

  <rect x="116" y="794" width="88" height="16" rx="4" fill="#5D4E37" fill-opacity="0.08"/>
  <text x="160" y="806" fill="#5D4E37" font-family="JetBrains Mono, monospace" font-size="9" text-anchor="middle">Splashing water</text>

  <!-- Disease Card 3: Fusarium Wilt -->
  <rect x="16" y="824" width="358" height="160" rx="8" fill="#FFFFFF"/>
  <rect x="16" y="824" width="358" height="160" rx="8" stroke="#6B7B3C" stroke-width="1"/>

  <!-- Risk indicator -->
  <rect x="16" y="824" width="358" height="4" rx="2" fill="#6B7B3C"/>

  <text x="32" y="852" fill="#5D4E37" font-family="Playfair Display, Georgia, serif" font-size="15" font-weight="600">Fusarium Wilt</text>
  <text x="32" y="870" fill="#5D4E37" font-family="Inter, sans-serif" font-size="11" font-style="italic">Fusarium oxysporum</text>

  <!-- Risk badge -->
  <rect x="284" y="836" width="76" height="24" rx="4" fill="#6B7B3C" fill-opacity="0.1"/>
  <text x="322" y="852" fill="#6B7B3C" font-family="Inter, sans-serif" font-size="11" font-weight="500" text-anchor="middle">LOW RISK</text>

  <text x="32" y="898" fill="#5D4E37" font-family="Inter, sans-serif" font-size="10" font-weight="500" letter-spacing="1">SYMPTOMS</text>
  <text x="32" y="918" fill="#5D4E37" font-family="Inter, sans-serif" font-size="11">Yellowing on one side of plant</text>
  <text x="32" y="934" fill="#5D4E37" font-family="Inter, sans-serif" font-size="11" fill-opacity="0.7">Wilting despite adequate water, brown vascular tissue</text>

  <text x="32" y="962" fill="#5D4E37" font-family="Inter, sans-serif" font-size="10" font-weight="500" letter-spacing="1">TRIGGER CONDITIONS</text>
  <rect x="32" y="970" width="88" height="16" rx="4" fill="#5D4E37" fill-opacity="0.08"/>
  <text x="76" y="982" fill="#5D4E37" font-family="JetBrains Mono, monospace" font-size="9" text-anchor="middle">Soil temp >27°C</text>

  <rect x="128" y="970" width="76" height="16" rx="4" fill="#5D4E37" fill-opacity="0.08"/>
  <text x="166" y="982" fill="#5D4E37" font-family="JetBrains Mono, monospace" font-size="9" text-anchor="middle">Acidic soil</text>

  <!-- Environmental Reference Section -->
  <text x="20" y="1028" fill="#5D4E37" font-family="Playfair Display, Georgia, serif" font-size="16" font-weight="600">Environmental Reference</text>

  <rect x="16" y="1044" width="358" height="80" rx="8" fill="#FFFFFF"/>
  <rect x="16" y="1044" width="358" height="80" rx="8" stroke="#E8E0D0" stroke-width="1"/>

  <!-- Soil Type -->
  <rect x="32" y="1060" width="100" height="48" rx="4" fill="#5D4E37" fill-opacity="0.04"/>
  <text x="82" y="1080" fill="#5D4E37" font-family="Inter, sans-serif" font-size="10" font-weight="500" text-anchor="middle">SOIL TYPE</text>
  <text x="82" y="1100" fill="#5D4E37" font-family="JetBrains Mono, monospace" font-size="12" text-anchor="middle">Red Loamy</text>

  <!-- Moisture -->
  <rect x="144" y="1060" width="100" height="48" rx="4" fill="#5D4E37" fill-opacity="0.04"/>
  <text x="194" y="1080" fill="#5D4E37" font-family="Inter, sans-serif" font-size="10" font-weight="500" text-anchor="middle">MOISTURE</text>
  <text x="194" y="1100" fill="#5D4E37" font-family="JetBrains Mono, monospace" font-size="12" text-anchor="middle">Adequate</text>

  <!-- Weather Pattern -->
  <rect x="256" y="1060" width="102" height="48" rx="4" fill="#5D4E37" fill-opacity="0.04"/>
  <text x="307" y="1080" fill="#5D4E37" font-family="Inter, sans-serif" font-size="10" font-weight="500" text-anchor="middle">WEATHER</text>
  <text x="307" y="1100" fill="#5D4E37" font-family="JetBrains Mono, monospace" font-size="12" text-anchor="middle">Monsoon</text>

  <!-- Watch Videos CTA -->
  <rect x="16" y="1140" width="358" height="48" rx="8" fill="#5D4E37"/>
  <text x="195" y="1170" fill="#F5F0E6" font-family="Inter, sans-serif" font-size="14" font-weight="500" text-anchor="middle">Watch Disease Identification Videos</text>

</svg>
