<?xml version="1.0" encoding="UTF-8"?>
<svg width="390" height="1100" viewBox="0 0 390 1100" fill="none" xmlns="http://www.w3.org/2000/svg">
  <!-- Background -->
  <rect width="390" height="1100" fill="#F5F0E6"/>

  <!-- Status Bar -->
  <rect width="390" height="44" fill="#5D4E37"/>
  <text x="20" y="28" fill="#F5F0E6" font-family="SF Pro, Inter, sans-serif" font-size="12" font-weight="500">9:41</text>
  <text x="340" y="28" fill="#F5F0E6" font-family="SF Pro, Inter, sans-serif" font-size="12" font-weight="500">85%</text>

  <!-- Header -->
  <rect y="44" width="390" height="56" fill="#FFFFFF"/>
  <rect y="99" width="390" height="1" fill="#E8E0D0"/>

  <!-- Back Button -->
  <polygon points="28,72 20,72 24,68 20,72 24,76" fill="#5D4E37"/>
  <text x="40" y="76" fill="#5D4E37" font-family="Inter, sans-serif" font-size="14">Back</text>

  <!-- Cart Icon -->
  <rect x="340" y="60" width="28" height="24" rx="4" fill="none" stroke="#5D4E37" stroke-width="1.5"/>
  <text x="354" y="78" fill="#5D4E37" font-family="JetBrains Mono, monospace" font-size="10" text-anchor="middle">2</text>

  <!-- Product Hero Image Area -->
  <rect x="0" y="100" width="390" height="280" fill="#C45D3E" fill-opacity="0.06"/>

  <!-- Seed Packet Illustration -->
  <rect x="120" y="130" width="150" height="220" rx="8" fill="#FFFFFF" stroke="#C45D3E" stroke-width="2"/>

  <!-- Packet Design Elements -->
  <rect x="120" y="130" width="150" height="60" rx="8" fill="#C45D3E"/>
  <rect x="120" y="182" width="150" height="8" fill="#C45D3E"/>
  <text x="195" y="165" fill="#FFFFFF" font-family="Playfair Display, Georgia, serif" font-size="16" font-weight="600" text-anchor="middle">TOMATO</text>
  <text x="195" y="175" fill="#FFFFFF" font-family="JetBrains Mono, monospace" font-size="8" text-anchor="middle">HYBRID 512</text>

  <!-- Tomato illustration on packet -->
  <circle cx="195" cy="260" r="40" fill="#C45D3E" fill-opacity="0.2"/>
  <circle cx="195" cy="260" r="32" fill="#C45D3E" fill-opacity="0.3"/>
  <ellipse cx="185" cy="230" rx="8" ry="4" fill="#6B7B3C"/>

  <text x="195" y="320" fill="#5D4E37" font-family="Inter, sans-serif" font-size="10" text-anchor="middle">NET WT: 10g</text>

  <!-- Video Count Badge -->
  <rect x="300" y="116" width="72" height="28" rx="6" fill="#5D4E37"/>
  <polygon points="316,126 316,134 324,130" fill="#FFFFFF"/>
  <text x="336" y="134" fill="#FFFFFF" font-family="JetBrains Mono, monospace" font-size="11">12 videos</text>

  <!-- Product Info Section -->
  <rect x="16" y="396" width="358" height="160" rx="8" fill="#FFFFFF"/>
  <rect x="16" y="396" width="358" height="160" rx="8" stroke="#E8E0D0" stroke-width="1"/>

  <text x="32" y="424" fill="#5D4E37" font-family="Playfair Display, Georgia, serif" font-size="20" font-weight="600">Tomato Hybrid 512</text>
  <text x="32" y="448" fill="#5D4E37" font-family="Inter, sans-serif" font-size="13" fill-opacity="0.7">High-yielding hybrid variety for all seasons</text>

  <!-- Rating -->
  <text x="32" y="476" fill="#D4A84B" font-family="Inter, sans-serif" font-size="14" font-weight="500">4.8</text>
  <text x="54" y="476" fill="#D4A84B" font-family="Inter, sans-serif" font-size="12">stars</text>
  <text x="92" y="476" fill="#5D4E37" font-family="Inter, sans-serif" font-size="12" fill-opacity="0.6">(1,240 reviews)</text>

  <!-- Price -->
  <text x="32" y="512" fill="#5D4E37" font-family="JetBrains Mono, monospace" font-size="28" font-weight="600">Rs 450</text>
  <text x="138" y="512" fill="#5D4E37" font-family="Inter, sans-serif" font-size="12" fill-opacity="0.6">/10g pack</text>

  <!-- Stock Status -->
  <rect x="32" y="524" width="80" height="20" rx="4" fill="#6B7B3C" fill-opacity="0.1"/>
  <text x="72" y="538" fill="#6B7B3C" font-family="Inter, sans-serif" font-size="10" font-weight="500" text-anchor="middle">In Stock</text>

  <!-- Quantity Selector -->
  <rect x="240" y="492" width="120" height="44" rx="6" fill="#E8E0D0"/>
  <rect x="248" y="500" width="28" height="28" rx="4" fill="#FFFFFF"/>
  <text x="262" y="520" fill="#5D4E37" font-family="Inter, sans-serif" font-size="18" text-anchor="middle">-</text>
  <text x="300" y="520" fill="#5D4E37" font-family="JetBrains Mono, monospace" font-size="16" font-weight="600" text-anchor="middle">2</text>
  <rect x="324" y="500" width="28" height="28" rx="4" fill="#FFFFFF"/>
  <text x="338" y="520" fill="#5D4E37" font-family="Inter, sans-serif" font-size="18" text-anchor="middle">+</text>

  <!-- Tabbed Information Section -->
  <rect x="16" y="572" width="358" height="340" rx="8" fill="#FFFFFF"/>
  <rect x="16" y="572" width="358" height="340" rx="8" stroke="#E8E0D0" stroke-width="1"/>

  <!-- Tab Bar -->
  <rect x="16" y="572" width="358" height="48" fill="#E8E0D0"/>

  <!-- Active Tab -->
  <rect x="24" y="580" width="80" height="32" rx="6" fill="#FFFFFF"/>
  <text x="64" y="601" fill="#5D4E37" font-family="Inter, sans-serif" font-size="12" font-weight="600" text-anchor="middle">Details</text>

  <!-- Inactive Tabs -->
  <text x="148" y="601" fill="#5D4E37" font-family="Inter, sans-serif" font-size="12" fill-opacity="0.6" text-anchor="middle">Agronomy</text>
  <text x="238" y="601" fill="#5D4E37" font-family="Inter, sans-serif" font-size="12" fill-opacity="0.6" text-anchor="middle">Videos</text>
  <text x="320" y="601" fill="#5D4E37" font-family="Inter, sans-serif" font-size="12" fill-opacity="0.6" text-anchor="middle">Reviews</text>

  <!-- Details Content -->
  <text x="32" y="652" fill="#5D4E37" font-family="Inter, sans-serif" font-size="11" font-weight="500" letter-spacing="1">SEED CHARACTERISTICS</text>

  <!-- Data Grid -->
  <rect x="32" y="668" width="156" height="52" rx="4" fill="#5D4E37" fill-opacity="0.03"/>
  <text x="110" y="688" fill="#5D4E37" font-family="Inter, sans-serif" font-size="10" text-anchor="middle">MATURITY</text>
  <text x="110" y="708" fill="#5D4E37" font-family="JetBrains Mono, monospace" font-size="14" font-weight="600" text-anchor="middle">65-70 days</text>

  <rect x="196" y="668" width="156" height="52" rx="4" fill="#5D4E37" fill-opacity="0.03"/>
  <text x="274" y="688" fill="#5D4E37" font-family="Inter, sans-serif" font-size="10" text-anchor="middle">YIELD POTENTIAL</text>
  <text x="274" y="708" fill="#5D4E37" font-family="JetBrains Mono, monospace" font-size="14" font-weight="600" text-anchor="middle">35-40 t/ha</text>

  <rect x="32" y="728" width="156" height="52" rx="4" fill="#5D4E37" fill-opacity="0.03"/>
  <text x="110" y="748" fill="#5D4E37" font-family="Inter, sans-serif" font-size="10" text-anchor="middle">FRUIT WEIGHT</text>
  <text x="110" y="768" fill="#5D4E37" font-family="JetBrains Mono, monospace" font-size="14" font-weight="600" text-anchor="middle">80-100g</text>

  <rect x="196" y="728" width="156" height="52" rx="4" fill="#5D4E37" fill-opacity="0.03"/>
  <text x="274" y="748" fill="#5D4E37" font-family="Inter, sans-serif" font-size="10" text-anchor="middle">PLANT TYPE</text>
  <text x="274" y="768" fill="#5D4E37" font-family="JetBrains Mono, monospace" font-size="14" font-weight="600" text-anchor="middle">Determinate</text>

  <!-- Disease Resistance -->
  <text x="32" y="812" fill="#5D4E37" font-family="Inter, sans-serif" font-size="11" font-weight="500" letter-spacing="1">DISEASE RESISTANCE</text>

  <rect x="32" y="824" width="100" height="24" rx="4" fill="#6B7B3C" fill-opacity="0.1"/>
  <text x="82" y="840" fill="#6B7B3C" font-family="Inter, sans-serif" font-size="10" font-weight="500" text-anchor="middle">Fusarium Wilt</text>

  <rect x="140" y="824" width="100" height="24" rx="4" fill="#6B7B3C" fill-opacity="0.1"/>
  <text x="190" y="840" fill="#6B7B3C" font-family="Inter, sans-serif" font-size="10" font-weight="500" text-anchor="middle">Verticillium</text>

  <rect x="248" y="824" width="100" height="24" rx="4" fill="#6B7B3C" fill-opacity="0.1"/>
  <text x="298" y="840" fill="#6B7B3C" font-family="Inter, sans-serif" font-size="10" font-weight="500" text-anchor="middle">Nematodes</text>

  <!-- Regional Suitability -->
  <text x="32" y="876" fill="#5D4E37" font-family="Inter, sans-serif" font-size="11" font-weight="500" letter-spacing="1">REGIONAL SUITABILITY</text>
  <text x="32" y="896" fill="#5D4E37" font-family="Inter, sans-serif" font-size="12">Maharashtra, Karnataka, Andhra Pradesh, Telangana, Gujarat</text>

  <!-- Demo Videos Section -->
  <text x="20" y="944" fill="#5D4E37" font-family="Playfair Display, Georgia, serif" font-size="16" font-weight="600">Field Demonstrations</text>
  <text x="320" y="944" fill="#C45D3E" font-family="Inter, sans-serif" font-size="12">View All 12</text>

  <!-- Video Thumbnails -->
  <rect x="16" y="960" width="172" height="100" rx="8" fill="#5D4E37" fill-opacity="0.1"/>
  <circle cx="102" cy="1010" r="20" fill="#5D4E37"/>
  <polygon points="96,1002 96,1018 110,1010" fill="#FFFFFF"/>
  <text x="102" y="1048" fill="#5D4E37" font-family="Inter, sans-serif" font-size="10" text-anchor="middle">Maharashtra - Nashik</text>

  <rect x="202" y="960" width="172" height="100" rx="8" fill="#5D4E37" fill-opacity="0.1"/>
  <circle cx="288" cy="1010" r="20" fill="#5D4E37"/>
  <polygon points="282,1002 282,1018 296,1010" fill="#FFFFFF"/>
  <text x="288" y="1048" fill="#5D4E37" font-family="Inter, sans-serif" font-size="10" text-anchor="middle">Karnataka - Kolar</text>

  <!-- Fixed Bottom CTA -->
  <rect y="1020" width="390" height="80" fill="#FFFFFF"/>
  <rect y="1020" width="390" height="1" fill="#E8E0D0"/>

  <rect x="16" y="1036" width="172" height="48" rx="8" fill="none" stroke="#5D4E37" stroke-width="1.5"/>
  <text x="102" y="1066" fill="#5D4E37" font-family="Inter, sans-serif" font-size="14" font-weight="500" text-anchor="middle">Add to Cart</text>

  <rect x="202" y="1036" width="172" height="48" rx="8" fill="#C45D3E"/>
  <text x="288" y="1066" fill="#FFFFFF" font-family="Inter, sans-serif" font-size="14" font-weight="600" text-anchor="middle">Buy Now - Rs 900</text>

</svg>
