<?xml version="1.0" encoding="UTF-8"?>
<svg width="1440" height="900" viewBox="0 0 1440 900" fill="none" xmlns="http://www.w3.org/2000/svg">
  <!-- Background -->
  <rect width="1440" height="900" fill="#F5F0E6"/>

  <!-- Top Navigation Bar -->
  <rect width="1440" height="64" fill="#5D4E37"/>

  <!-- Logo -->
  <text x="40" y="40" fill="#D4A84B" font-family="Playfair Display, Georgia, serif" font-size="20" font-weight="600">Kisan Mitra</text>

  <!-- Nav Links -->
  <text x="200" y="40" fill="#F5F0E6" font-family="Inter, sans-serif" font-size="14">Dashboard</text>
  <rect x="185" y="52" width="70" height="3" rx="1.5" fill="#C45D3E"/>

  <text x="320" y="40" fill="#F5F0E6" fill-opacity="0.7" font-family="Inter, sans-serif" font-size="14">Shop</text>
  <text x="420" y="40" fill="#F5F0E6" fill-opacity="0.7" font-family="Inter, sans-serif" font-size="14">Disease Library</text>
  <text x="580" y="40" fill="#F5F0E6" fill-opacity="0.7" font-family="Inter, sans-serif" font-size="14">Calendar</text>
  <text x="700" y="40" fill="#F5F0E6" fill-opacity="0.7" font-family="Inter, sans-serif" font-size="14">Alerts</text>

  <!-- Search Bar -->
  <rect x="900" y="16" width="280" height="32" rx="16" fill="#FFFFFF" fill-opacity="0.1"/>
  <text x="924" y="38" fill="#F5F0E6" fill-opacity="0.5" font-family="Inter, sans-serif" font-size="13">Search crops, products...</text>

  <!-- Language Selector -->
  <rect x="1200" y="16" width="80" height="32" rx="4" fill="#C45D3E"/>
  <text x="1240" y="38" fill="#F5F0E6" font-family="Inter, sans-serif" font-size="12" font-weight="500" text-anchor="middle">हिन्दी</text>

  <!-- User Avatar -->
  <circle cx="1340" cy="32" r="18" fill="#D4A84B"/>
  <text x="1340" y="38" fill="#5D4E37" font-family="Inter, sans-serif" font-size="14" font-weight="600" text-anchor="middle">R</text>

  <!-- Notification Bell -->
  <circle cx="1390" cy="32" r="4" fill="#C45D3E"/>
  <rect x="1380" y="20" width="16" height="18" rx="3" fill="none" stroke="#F5F0E6" stroke-width="1.5"/>

  <!-- Main Content Area -->
  <!-- Left Column - 65% -->
  <!-- Right Column - 35% -->

  <!-- Welcome Section -->
  <rect x="40" y="88" width="900" height="120" rx="12" fill="#FFFFFF"/>
  <rect x="40" y="88" width="900" height="120" rx="12" stroke="#E8E0D0" stroke-width="1"/>

  <text x="72" y="128" fill="#5D4E37" font-family="Playfair Display, Georgia, serif" font-size="24" font-weight="600">Good Morning, Ramesh</text>
  <text x="72" y="156" fill="#5D4E37" font-family="Inter, sans-serif" font-size="14" fill-opacity="0.7">Here's what's happening on your farm today</text>

  <!-- Quick Stats -->
  <rect x="560" y="108" width="1" height="80" fill="#E8E0D0"/>

  <text x="600" y="128" fill="#5D4E37" font-family="Inter, sans-serif" font-size="11" font-weight="500" letter-spacing="1">ACTIVE CROPS</text>
  <text x="600" y="160" fill="#5D4E37" font-family="JetBrains Mono, monospace" font-size="32" font-weight="600">3</text>
  <text x="600" y="180" fill="#6B7B3C" font-family="Inter, sans-serif" font-size="12">All healthy</text>

  <rect x="720" y="108" width="1" height="80" fill="#E8E0D0"/>

  <text x="760" y="128" fill="#5D4E37" font-family="Inter, sans-serif" font-size="11" font-weight="500" letter-spacing="1">PENDING TASKS</text>
  <text x="760" y="160" fill="#5D4E37" font-family="JetBrains Mono, monospace" font-size="32" font-weight="600">5</text>
  <text x="760" y="180" fill="#D4A84B" font-family="Inter, sans-serif" font-size="12">2 due today</text>

  <rect x="880" y="108" width="1" height="80" fill="#E8E0D0"/>

  <text x="900" y="128" fill="#5D4E37" font-family="Inter, sans-serif" font-size="11" font-weight="500" letter-spacing="1">ALERTS</text>
  <text x="900" y="160" fill="#C45D3E" font-family="JetBrains Mono, monospace" font-size="32" font-weight="600">2</text>
  <text x="900" y="180" fill="#C45D3E" font-family="Inter, sans-serif" font-size="12">1 critical</text>

  <!-- Weather Widget - Right Side -->
  <rect x="960" y="88" width="440" height="120" rx="12" fill="#FFFFFF"/>
  <rect x="960" y="88" width="440" height="120" rx="12" stroke="#E8E0D0" stroke-width="1"/>

  <text x="992" y="120" fill="#5D4E37" font-family="Inter, sans-serif" font-size="11" font-weight="500" letter-spacing="1">WEATHER - NASHIK, MAHARASHTRA</text>

  <text x="992" y="168" fill="#5D4E37" font-family="JetBrains Mono, monospace" font-size="40" font-weight="600">28°C</text>
  <text x="1090" y="156" fill="#5D4E37" font-family="Inter, sans-serif" font-size="14">Partly Cloudy</text>
  <text x="1090" y="176" fill="#5D4E37" font-family="Inter, sans-serif" font-size="12" fill-opacity="0.7">Humidity: 72%</text>

  <!-- 5 day forecast -->
  <rect x="1200" y="108" width="1" height="80" fill="#E8E0D0"/>

  <text x="1240" y="126" fill="#5D4E37" font-family="Inter, sans-serif" font-size="10">Wed</text>
  <text x="1240" y="160" fill="#5D4E37" font-family="JetBrains Mono, monospace" font-size="14" font-weight="500">30°</text>
  <text x="1240" y="180" fill="#5D4E37" font-family="Inter, sans-serif" font-size="10" fill-opacity="0.6">Rain 40%</text>

  <text x="1300" y="126" fill="#5D4E37" font-family="Inter, sans-serif" font-size="10">Thu</text>
  <text x="1300" y="160" fill="#5D4E37" font-family="JetBrains Mono, monospace" font-size="14" font-weight="500">29°</text>
  <text x="1300" y="180" fill="#5D4E37" font-family="Inter, sans-serif" font-size="10" fill-opacity="0.6">Clear</text>

  <text x="1360" y="126" fill="#5D4E37" font-family="Inter, sans-serif" font-size="10">Fri</text>
  <text x="1360" y="160" fill="#5D4E37" font-family="JetBrains Mono, monospace" font-size="14" font-weight="500">27°</text>
  <text x="1360" y="180" fill="#5D4E37" font-family="Inter, sans-serif" font-size="10" fill-opacity="0.6">Clear</text>

  <!-- Critical Alert Banner -->
  <rect x="40" y="224" width="1360" height="72" rx="12" fill="#C45D3E" fill-opacity="0.08"/>
  <rect x="40" y="224" width="1360" height="72" rx="12" stroke="#C45D3E" stroke-width="1"/>
  <rect x="40" y="224" width="6" height="72" rx="3" fill="#C45D3E"/>

  <circle cx="80" cy="260" r="20" fill="#C45D3E" fill-opacity="0.15"/>
  <text x="80" y="268" fill="#C45D3E" font-family="Inter, sans-serif" font-size="20" font-weight="600" text-anchor="middle">!</text>

  <text x="120" y="252" fill="#C45D3E" font-family="Inter, sans-serif" font-size="11" font-weight="500" letter-spacing="1">CRITICAL ALERT</text>
  <text x="120" y="276" fill="#5D4E37" font-family="Playfair Display, Georgia, serif" font-size="16" font-weight="600">Late Blight Risk Elevated for Tomato - Block A</text>

  <text x="600" y="264" fill="#5D4E37" font-family="Inter, sans-serif" font-size="13" fill-opacity="0.7">Preventive fungicide spray recommended within 24-48 hours</text>

  <rect x="1180" y="244" width="180" height="40" rx="6" fill="#C45D3E"/>
  <text x="1270" y="270" fill="#FFFFFF" font-family="Inter, sans-serif" font-size="13" font-weight="500" text-anchor="middle">View Prevention Steps</text>

  <!-- Main Grid - Two columns -->
  <!-- Left: Agent Cards -->
  <!-- Right: Calendar and Tasks -->

  <!-- Agent Quick Actions Section -->
  <text x="40" y="336" fill="#5D4E37" font-family="Playfair Display, Georgia, serif" font-size="18" font-weight="600">AI Agents</text>

  <!-- Crop Doctor Card -->
  <rect x="40" y="356" width="280" height="160" rx="12" fill="#FFFFFF"/>
  <rect x="40" y="356" width="280" height="160" rx="12" stroke="#6B7B3C" stroke-width="1"/>

  <circle cx="88" cy="404" r="28" fill="#6B7B3C" fill-opacity="0.1"/>
  <rect x="72" y="388" width="32" height="32" rx="6" fill="#6B7B3C"/>
  <!-- Camera icon -->
  <circle cx="88" cy="404" r="8" fill="#FFFFFF"/>

  <text x="136" y="400" fill="#5D4E37" font-family="Playfair Display, Georgia, serif" font-size="16" font-weight="600">Crop Doctor</text>
  <text x="136" y="420" fill="#5D4E37" font-family="Inter, sans-serif" font-size="12" fill-opacity="0.7">AI disease diagnosis</text>

  <text x="56" y="464" fill="#5D4E37" font-family="Inter, sans-serif" font-size="12">Upload a photo or use your camera to</text>
  <text x="56" y="482" fill="#5D4E37" font-family="Inter, sans-serif" font-size="12">identify plant diseases instantly.</text>

  <rect x="56" y="496" width="120" height="36" rx="6" fill="#6B7B3C"/>
  <text x="116" y="520" fill="#FFFFFF" font-family="Inter, sans-serif" font-size="12" font-weight="500" text-anchor="middle">Upload Photo</text>

  <!-- Voice Assistant Card -->
  <rect x="340" y="356" width="280" height="160" rx="12" fill="#FFFFFF"/>
  <rect x="340" y="356" width="280" height="160" rx="12" stroke="#D4A84B" stroke-width="1"/>

  <circle cx="388" cy="404" r="28" fill="#D4A84B" fill-opacity="0.1"/>
  <rect x="372" y="388" width="32" height="32" rx="6" fill="#D4A84B"/>
  <!-- Mic icon -->
  <rect x="382" y="396" width="12" height="16" rx="6" fill="#FFFFFF"/>

  <text x="436" y="400" fill="#5D4E37" font-family="Playfair Display, Georgia, serif" font-size="16" font-weight="600">Voice Assistant</text>
  <text x="436" y="420" fill="#5D4E37" font-family="Inter, sans-serif" font-size="12" fill-opacity="0.7">Ask in your language</text>

  <text x="356" y="464" fill="#5D4E37" font-family="Inter, sans-serif" font-size="12">Ask questions about farming in Hindi,</text>
  <text x="356" y="482" fill="#5D4E37" font-family="Inter, sans-serif" font-size="12">Telugu, Tamil, Kannada, or Marathi.</text>

  <rect x="356" y="496" width="120" height="36" rx="6" fill="#D4A84B"/>
  <text x="416" y="520" fill="#FFFFFF" font-family="Inter, sans-serif" font-size="12" font-weight="500" text-anchor="middle">Start Speaking</text>

  <!-- Calendar Preview -->
  <rect x="640" y="356" width="300" height="360" rx="12" fill="#FFFFFF"/>
  <rect x="640" y="356" width="300" height="360" rx="12" stroke="#E8E0D0" stroke-width="1"/>

  <text x="672" y="392" fill="#5D4E37" font-family="Playfair Display, Georgia, serif" font-size="16" font-weight="600">Today's Schedule</text>
  <text x="872" y="392" fill="#C45D3E" font-family="JetBrains Mono, monospace" font-size="12">Dec 10</text>

  <!-- Task 1 -->
  <rect x="656" y="412" width="268" height="64" rx="8" fill="#6B7B3C" fill-opacity="0.05"/>
  <rect x="656" y="412" width="4" height="64" rx="2" fill="#6B7B3C"/>

  <text x="676" y="436" fill="#5D4E37" font-family="JetBrains Mono, monospace" font-size="11" font-weight="500">06:00 AM</text>
  <text x="676" y="456" fill="#5D4E37" font-family="Inter, sans-serif" font-size="13" font-weight="500">Morning Irrigation</text>
  <text x="676" y="472" fill="#5D4E37" font-family="Inter, sans-serif" font-size="11" fill-opacity="0.6">Tomato - Block A</text>

  <!-- Checkbox -->
  <rect x="880" y="428" width="28" height="28" rx="6" fill="none" stroke="#6B7B3C" stroke-width="1.5"/>

  <!-- Task 2 -->
  <rect x="656" y="488" width="268" height="64" rx="8" fill="#D4A84B" fill-opacity="0.05"/>
  <rect x="656" y="488" width="4" height="64" rx="2" fill="#D4A84B"/>

  <text x="676" y="512" fill="#5D4E37" font-family="JetBrains Mono, monospace" font-size="11" font-weight="500">10:00 AM</text>
  <text x="676" y="532" fill="#5D4E37" font-family="Inter, sans-serif" font-size="13" font-weight="500">Disease Surveillance</text>
  <text x="676" y="548" fill="#5D4E37" font-family="Inter, sans-serif" font-size="11" fill-opacity="0.6">Weekly inspection</text>

  <!-- Checkbox checked -->
  <rect x="880" y="504" width="28" height="28" rx="6" fill="#6B7B3C"/>
  <polyline points="888,518 894,524 904,512" fill="none" stroke="#FFFFFF" stroke-width="2"/>

  <!-- Task 3 -->
  <rect x="656" y="564" width="268" height="64" rx="8" fill="#C45D3E" fill-opacity="0.05"/>
  <rect x="656" y="564" width="4" height="64" rx="2" fill="#C45D3E"/>

  <text x="676" y="588" fill="#5D4E37" font-family="JetBrains Mono, monospace" font-size="11" font-weight="500">02:00 PM</text>
  <text x="676" y="608" fill="#5D4E37" font-family="Inter, sans-serif" font-size="13" font-weight="500">Preventive Spray</text>
  <text x="676" y="624" fill="#5D4E37" font-family="Inter, sans-serif" font-size="11" fill-opacity="0.6">Late blight prevention</text>

  <rect x="880" y="580" width="28" height="28" rx="6" fill="none" stroke="#C45D3E" stroke-width="1.5"/>

  <!-- View Full Calendar -->
  <rect x="656" y="644" width="268" height="40" rx="6" fill="none" stroke="#5D4E37" stroke-width="1"/>
  <text x="790" y="670" fill="#5D4E37" font-family="Inter, sans-serif" font-size="12" font-weight="500" text-anchor="middle">View Full Calendar</text>

  <!-- Crop Status Section -->
  <rect x="960" y="356" width="440" height="360" rx="12" fill="#FFFFFF"/>
  <rect x="960" y="356" width="440" height="360" rx="12" stroke="#E8E0D0" stroke-width="1"/>

  <text x="992" y="392" fill="#5D4E37" font-family="Playfair Display, Georgia, serif" font-size="16" font-weight="600">My Crops</text>

  <!-- Crop 1 -->
  <rect x="976" y="412" width="408" height="88" rx="8" fill="#5D4E37" fill-opacity="0.02"/>
  <rect x="976" y="412" width="408" height="88" rx="8" stroke="#E8E0D0" stroke-width="1"/>

  <rect x="992" y="428" width="56" height="56" rx="8" fill="#C45D3E" fill-opacity="0.1"/>
  <text x="1020" y="464" fill="#C45D3E" font-family="Playfair Display, Georgia, serif" font-size="16" font-weight="600" text-anchor="middle">T</text>

  <text x="1064" y="448" fill="#5D4E37" font-family="Playfair Display, Georgia, serif" font-size="14" font-weight="600">Tomato Hybrid 512</text>
  <text x="1064" y="468" fill="#6B7B3C" font-family="Inter, sans-serif" font-size="12">Flowering Stage - Day 45</text>
  <rect x="1064" y="476" width="200" height="6" rx="3" fill="#E8E0D0"/>
  <rect x="1064" y="476" width="76" height="6" rx="3" fill="#C45D3E"/>
  <text x="1280" y="486" fill="#5D4E37" font-family="JetBrains Mono, monospace" font-size="10">38%</text>

  <rect x="1320" y="440" width="48" height="28" rx="6" fill="#6B7B3C" fill-opacity="0.1"/>
  <text x="1344" y="459" fill="#6B7B3C" font-family="Inter, sans-serif" font-size="11" font-weight="500" text-anchor="middle">Good</text>

  <!-- Crop 2 -->
  <rect x="976" y="512" width="408" height="88" rx="8" fill="#5D4E37" fill-opacity="0.02"/>
  <rect x="976" y="512" width="408" height="88" rx="8" stroke="#E8E0D0" stroke-width="1"/>

  <rect x="992" y="528" width="56" height="56" rx="8" fill="#6B7B3C" fill-opacity="0.1"/>
  <text x="1020" y="564" fill="#6B7B3C" font-family="Playfair Display, Georgia, serif" font-size="16" font-weight="600" text-anchor="middle">C</text>

  <text x="1064" y="548" fill="#5D4E37" font-family="Playfair Display, Georgia, serif" font-size="14" font-weight="600">Chilli Fire King</text>
  <text x="1064" y="568" fill="#6B7B3C" font-family="Inter, sans-serif" font-size="12">Vegetative Stage - Day 28</text>
  <rect x="1064" y="576" width="200" height="6" rx="3" fill="#E8E0D0"/>
  <rect x="1064" y="576" width="50" height="6" rx="3" fill="#6B7B3C"/>
  <text x="1280" y="586" fill="#5D4E37" font-family="JetBrains Mono, monospace" font-size="10">25%</text>

  <rect x="1320" y="540" width="48" height="28" rx="6" fill="#6B7B3C" fill-opacity="0.1"/>
  <text x="1344" y="559" fill="#6B7B3C" font-family="Inter, sans-serif" font-size="11" font-weight="500" text-anchor="middle">Good</text>

  <!-- Crop 3 -->
  <rect x="976" y="612" width="408" height="88" rx="8" fill="#5D4E37" fill-opacity="0.02"/>
  <rect x="976" y="612" width="408" height="88" rx="8" stroke="#E8E0D0" stroke-width="1"/>

  <rect x="992" y="628" width="56" height="56" rx="8" fill="#D4A84B" fill-opacity="0.1"/>
  <text x="1020" y="664" fill="#D4A84B" font-family="Playfair Display, Georgia, serif" font-size="16" font-weight="600" text-anchor="middle">O</text>

  <text x="1064" y="648" fill="#5D4E37" font-family="Playfair Display, Georgia, serif" font-size="14" font-weight="600">Okra Premium Green</text>
  <text x="1064" y="668" fill="#6B7B3C" font-family="Inter, sans-serif" font-size="12">Harvesting - Day 65</text>
  <rect x="1064" y="676" width="200" height="6" rx="3" fill="#E8E0D0"/>
  <rect x="1064" y="676" width="180" height="6" rx="3" fill="#D4A84B"/>
  <text x="1280" y="686" fill="#5D4E37" font-family="JetBrains Mono, monospace" font-size="10">90%</text>

  <rect x="1320" y="640" width="48" height="28" rx="6" fill="#D4A84B" fill-opacity="0.1"/>
  <text x="1344" y="659" fill="#D4A84B" font-family="Inter, sans-serif" font-size="11" font-weight="500" text-anchor="middle">Ready</text>

  <!-- Disease Library Quick Access -->
  <text x="40" y="556" fill="#5D4E37" font-family="Playfair Display, Georgia, serif" font-size="18" font-weight="600">Disease Reference</text>

  <rect x="40" y="576" width="580" height="140" rx="12" fill="#FFFFFF"/>
  <rect x="40" y="576" width="580" height="140" rx="12" stroke="#E8E0D0" stroke-width="1"/>

  <!-- Disease cards -->
  <rect x="56" y="592" width="120" height="108" rx="8" fill="#C45D3E" fill-opacity="0.05"/>
  <rect x="56" y="592" width="120" height="4" rx="2" fill="#C45D3E"/>
  <text x="116" y="640" fill="#5D4E37" font-family="Inter, sans-serif" font-size="12" font-weight="500" text-anchor="middle">Early Blight</text>
  <text x="116" y="660" fill="#5D4E37" font-family="Inter, sans-serif" font-size="10" fill-opacity="0.6" text-anchor="middle">Tomato, Potato</text>
  <text x="116" y="688" fill="#C45D3E" font-family="Inter, sans-serif" font-size="10" font-weight="500" text-anchor="middle">HIGH RISK</text>

  <rect x="188" y="592" width="120" height="108" rx="8" fill="#D4A84B" fill-opacity="0.05"/>
  <rect x="188" y="592" width="120" height="4" rx="2" fill="#D4A84B"/>
  <text x="248" y="640" fill="#5D4E37" font-family="Inter, sans-serif" font-size="12" font-weight="500" text-anchor="middle">Septoria</text>
  <text x="248" y="660" fill="#5D4E37" font-family="Inter, sans-serif" font-size="10" fill-opacity="0.6" text-anchor="middle">Tomato</text>
  <text x="248" y="688" fill="#D4A84B" font-family="Inter, sans-serif" font-size="10" font-weight="500" text-anchor="middle">MODERATE</text>

  <rect x="320" y="592" width="120" height="108" rx="8" fill="#6B7B3C" fill-opacity="0.05"/>
  <rect x="320" y="592" width="120" height="4" rx="2" fill="#6B7B3C"/>
  <text x="380" y="640" fill="#5D4E37" font-family="Inter, sans-serif" font-size="12" font-weight="500" text-anchor="middle">Powdery Mildew</text>
  <text x="380" y="660" fill="#5D4E37" font-family="Inter, sans-serif" font-size="10" fill-opacity="0.6" text-anchor="middle">Okra, Cucumber</text>
  <text x="380" y="688" fill="#6B7B3C" font-family="Inter, sans-serif" font-size="10" font-weight="500" text-anchor="middle">LOW RISK</text>

  <rect x="452" y="592" width="120" height="108" rx="8" fill="#6B7B3C" fill-opacity="0.05"/>
  <rect x="452" y="592" width="120" height="4" rx="2" fill="#6B7B3C"/>
  <text x="512" y="640" fill="#5D4E37" font-family="Inter, sans-serif" font-size="12" font-weight="500" text-anchor="middle">Anthracnose</text>
  <text x="512" y="660" fill="#5D4E37" font-family="Inter, sans-serif" font-size="10" fill-opacity="0.6" text-anchor="middle">Chilli, Tomato</text>
  <text x="512" y="688" fill="#6B7B3C" font-family="Inter, sans-serif" font-size="10" font-weight="500" text-anchor="middle">LOW RISK</text>

  <!-- Browse All -->
  <rect x="580" y="636" width="28" height="28" rx="14" fill="#5D4E37"/>
  <text x="594" y="656" fill="#FFFFFF" font-family="Inter, sans-serif" font-size="16" text-anchor="middle">+</text>

  <!-- Featured Products Section -->
  <text x="40" y="756" fill="#5D4E37" font-family="Playfair Display, Georgia, serif" font-size="18" font-weight="600">Recommended Seeds</text>
  <text x="550" y="756" fill="#C45D3E" font-family="Inter, sans-serif" font-size="13">View All Products</text>

  <rect x="40" y="776" width="580" height="108" rx="12" fill="#FFFFFF"/>
  <rect x="40" y="776" width="580" height="108" rx="12" stroke="#E8E0D0" stroke-width="1"/>

  <!-- Product 1 -->
  <rect x="56" y="792" width="72" height="76" rx="6" fill="#C45D3E" fill-opacity="0.08"/>
  <rect x="68" y="804" width="48" height="52" rx="4" fill="#FFFFFF" stroke="#C45D3E" stroke-width="1"/>
  <text x="92" y="828" fill="#C45D3E" font-family="Playfair Display, Georgia, serif" font-size="6" font-weight="600" text-anchor="middle">TOMATO</text>

  <text x="144" y="816" fill="#5D4E37" font-family="Playfair Display, Georgia, serif" font-size="13" font-weight="600">Tomato Hybrid 512</text>
  <text x="144" y="836" fill="#5D4E37" font-family="Inter, sans-serif" font-size="11" fill-opacity="0.6">High yield, disease resistant</text>
  <text x="144" y="860" fill="#5D4E37" font-family="JetBrains Mono, monospace" font-size="14" font-weight="600">Rs 450</text>
  <text x="200" y="860" fill="#5D4E37" font-family="Inter, sans-serif" font-size="10" fill-opacity="0.6">/10g</text>

  <!-- Product 2 -->
  <rect x="260" y="792" width="72" height="76" rx="6" fill="#6B7B3C" fill-opacity="0.08"/>
  <rect x="272" y="804" width="48" height="52" rx="4" fill="#FFFFFF" stroke="#6B7B3C" stroke-width="1"/>
  <text x="296" y="828" fill="#6B7B3C" font-family="Playfair Display, Georgia, serif" font-size="6" font-weight="600" text-anchor="middle">CHILLI</text>

  <text x="348" y="816" fill="#5D4E37" font-family="Playfair Display, Georgia, serif" font-size="13" font-weight="600">Chilli Fire King</text>
  <text x="348" y="836" fill="#5D4E37" font-family="Inter, sans-serif" font-size="11" fill-opacity="0.6">Premium hybrid variety</text>
  <text x="348" y="860" fill="#5D4E37" font-family="JetBrains Mono, monospace" font-size="14" font-weight="600">Rs 380</text>
  <text x="404" y="860" fill="#5D4E37" font-family="Inter, sans-serif" font-size="10" fill-opacity="0.6">/10g</text>

  <!-- Product 3 -->
  <rect x="464" y="792" width="72" height="76" rx="6" fill="#D4A84B" fill-opacity="0.08"/>
  <rect x="476" y="804" width="48" height="52" rx="4" fill="#FFFFFF" stroke="#D4A84B" stroke-width="1"/>
  <text x="500" y="828" fill="#D4A84B" font-family="Playfair Display, Georgia, serif" font-size="6" font-weight="600" text-anchor="middle">OKRA</text>

  <text x="552" y="816" fill="#5D4E37" font-family="Playfair Display, Georgia, serif" font-size="13" font-weight="600">Okra Premium</text>
  <text x="552" y="836" fill="#5D4E37" font-family="Inter, sans-serif" font-size="11" fill-opacity="0.6">Early maturing variety</text>
  <text x="552" y="860" fill="#5D4E37" font-family="JetBrains Mono, monospace" font-size="14" font-weight="600">Rs 320</text>
  <text x="608" y="860" fill="#5D4E37" font-family="Inter, sans-serif" font-size="10" fill-opacity="0.6">/10g</text>

</svg>
