<?xml version="1.0" encoding="UTF-8"?>
<svg width="390" height="1200" viewBox="0 0 390 1200" fill="none" xmlns="http://www.w3.org/2000/svg">
  <!-- Background -->
  <rect width="390" height="1200" fill="#F5F0E6"/>

  <!-- Status Bar -->
  <rect width="390" height="44" fill="#5D4E37"/>
  <text x="20" y="28" fill="#F5F0E6" font-family="SF Pro, Inter, sans-serif" font-size="12" font-weight="500">9:41</text>
  <text x="340" y="28" fill="#F5F0E6" font-family="SF Pro, Inter, sans-serif" font-size="12" font-weight="500">85%</text>

  <!-- Header -->
  <rect y="44" width="390" height="72" fill="#5D4E37"/>

  <!-- Back Button -->
  <polygon points="28,80 20,80 24,76 20,80 24,84" fill="#F5F0E6"/>
  <text x="40" y="84" fill="#F5F0E6" font-family="Inter, sans-serif" font-size="14">Back</text>

  <text x="195" y="76" fill="#F5F0E6" font-family="Playfair Display, Georgia, serif" font-size="18" font-weight="600" text-anchor="middle">Field Videos</text>
  <text x="195" y="100" fill="#F5F0E6" font-family="Inter, sans-serif" font-size="11" fill-opacity="0.85" text-anchor="middle">Demonstrations near your location</text>

  <!-- Location Card -->
  <rect x="16" y="132" width="358" height="80" rx="8" fill="#FFFFFF"/>
  <rect x="16" y="132" width="358" height="80" rx="8" stroke="#D4A84B" stroke-width="1"/>

  <!-- Location Icon -->
  <circle cx="52" cy="172" r="20" fill="#D4A84B" fill-opacity="0.1"/>
  <circle cx="52" cy="168" r="6" fill="#D4A84B"/>
  <path d="M52 178 L52 168" stroke="#D4A84B" stroke-width="2"/>
  <ellipse cx="52" cy="180" rx="8" ry="3" fill="#D4A84B" fill-opacity="0.3"/>

  <text x="84" y="156" fill="#5D4E37" font-family="Inter, sans-serif" font-size="10" font-weight="500" letter-spacing="1">YOUR LOCATION (APPROXIMATE)</text>
  <text x="84" y="178" fill="#5D4E37" font-family="Playfair Display, Georgia, serif" font-size="15" font-weight="600">Nashik District, Maharashtra</text>
  <text x="84" y="198" fill="#5D4E37" font-family="JetBrains Mono, monospace" font-size="10" fill-opacity="0.6">19.9975° N, 73.7898° E</text>

  <!-- Change Location Button -->
  <rect x="290" y="156" width="68" height="28" rx="4" fill="#D4A84B" fill-opacity="0.1"/>
  <text x="324" y="175" fill="#D4A84B" font-family="Inter, sans-serif" font-size="11" font-weight="500" text-anchor="middle">Change</text>

  <!-- Crop Filter -->
  <text x="20" y="244" fill="#5D4E37" font-family="Inter, sans-serif" font-size="11" font-weight="500" letter-spacing="1">FILTER BY CROP</text>

  <rect x="16" y="256" width="64" height="28" rx="14" fill="#C45D3E"/>
  <text x="48" y="275" fill="#FFFFFF" font-family="Inter, sans-serif" font-size="11" font-weight="500" text-anchor="middle">All</text>

  <rect x="88" y="256" width="72" height="28" rx="14" fill="#E8E0D0"/>
  <text x="124" y="275" fill="#5D4E37" font-family="Inter, sans-serif" font-size="11" text-anchor="middle">Tomato</text>

  <rect x="168" y="256" width="60" height="28" rx="14" fill="#E8E0D0"/>
  <text x="198" y="275" fill="#5D4E37" font-family="Inter, sans-serif" font-size="11" text-anchor="middle">Chilli</text>

  <rect x="236" y="256" width="56" height="28" rx="14" fill="#E8E0D0"/>
  <text x="264" y="275" fill="#5D4E37" font-family="Inter, sans-serif" font-size="11" text-anchor="middle">Okra</text>

  <rect x="300" y="256" width="68" height="28" rx="14" fill="#E8E0D0"/>
  <text x="334" y="275" fill="#5D4E37" font-family="Inter, sans-serif" font-size="11" text-anchor="middle">Cotton</text>

  <!-- Nearest Videos Section -->
  <text x="20" y="320" fill="#5D4E37" font-family="Playfair Display, Georgia, serif" font-size="16" font-weight="600">Nearest to You</text>
  <text x="20" y="340" fill="#5D4E37" font-family="Inter, sans-serif" font-size="11" fill-opacity="0.6">Videos from farms in your region</text>

  <!-- Video Card 1 - Nearest -->
  <rect x="16" y="356" width="358" height="200" rx="8" fill="#FFFFFF"/>
  <rect x="16" y="356" width="358" height="200" rx="8" stroke="#E8E0D0" stroke-width="1"/>

  <!-- Video Thumbnail -->
  <rect x="16" y="356" width="358" height="140" rx="8" fill="#5D4E37" fill-opacity="0.08"/>
  <rect x="16" y="488" width="358" height="8" fill="#FFFFFF"/>

  <!-- Play button -->
  <circle cx="195" cy="426" r="28" fill="#5D4E37" fill-opacity="0.8"/>
  <polygon points="188,414 188,438 208,426" fill="#FFFFFF"/>

  <!-- Duration badge -->
  <rect x="320" y="468" width="44" height="20" rx="4" fill="#5D4E37"/>
  <text x="342" y="482" fill="#FFFFFF" font-family="JetBrains Mono, monospace" font-size="10" text-anchor="middle">3:42</text>

  <!-- Distance badge - GREEN for nearest -->
  <rect x="24" y="364" width="72" height="24" rx="4" fill="#6B7B3C"/>
  <text x="60" y="380" fill="#FFFFFF" font-family="JetBrains Mono, monospace" font-size="10" font-weight="500" text-anchor="middle">12 km away</text>

  <!-- Language badge -->
  <rect x="104" y="364" width="52" height="24" rx="4" fill="#D4A84B"/>
  <text x="130" y="380" fill="#FFFFFF" font-family="Inter, sans-serif" font-size="10" font-weight="500" text-anchor="middle">मराठी</text>

  <!-- Video Info -->
  <text x="32" y="520" fill="#5D4E37" font-family="Playfair Display, Georgia, serif" font-size="14" font-weight="600">Tomato Hybrid 512 - Flowering Stage</text>
  <text x="32" y="540" fill="#5D4E37" font-family="Inter, sans-serif" font-size="11" fill-opacity="0.7">Sinnar Taluka, Nashik | Farmer: Suresh Patil</text>

  <!-- Video Card 2 -->
  <rect x="16" y="572" width="358" height="200" rx="8" fill="#FFFFFF"/>
  <rect x="16" y="572" width="358" height="200" rx="8" stroke="#E8E0D0" stroke-width="1"/>

  <!-- Video Thumbnail -->
  <rect x="16" y="572" width="358" height="140" rx="8" fill="#5D4E37" fill-opacity="0.08"/>
  <rect x="16" y="704" width="358" height="8" fill="#FFFFFF"/>

  <!-- Play button -->
  <circle cx="195" cy="642" r="28" fill="#5D4E37" fill-opacity="0.8"/>
  <polygon points="188,630 188,654 208,642" fill="#FFFFFF"/>

  <!-- Duration badge -->
  <rect x="320" y="684" width="44" height="20" rx="4" fill="#5D4E37"/>
  <text x="342" y="698" fill="#FFFFFF" font-family="JetBrains Mono, monospace" font-size="10" text-anchor="middle">5:18</text>

  <!-- Distance badge - AMBER for medium -->
  <rect x="24" y="580" width="72" height="24" rx="4" fill="#D4A84B"/>
  <text x="60" y="596" fill="#FFFFFF" font-family="JetBrains Mono, monospace" font-size="10" font-weight="500" text-anchor="middle">28 km away</text>

  <!-- Language badge -->
  <rect x="104" y="580" width="52" height="24" rx="4" fill="#D4A84B"/>
  <text x="130" y="596" fill="#FFFFFF" font-family="Inter, sans-serif" font-size="10" font-weight="500" text-anchor="middle">मराठी</text>

  <!-- Video Info -->
  <text x="32" y="736" fill="#5D4E37" font-family="Playfair Display, Georgia, serif" font-size="14" font-weight="600">Tomato Disease Prevention Tips</text>
  <text x="32" y="756" fill="#5D4E37" font-family="Inter, sans-serif" font-size="11" fill-opacity="0.7">Dindori Taluka, Nashik | Farmer: Ramesh Jadhav</text>

  <!-- Video Card 3 -->
  <rect x="16" y="788" width="358" height="200" rx="8" fill="#FFFFFF"/>
  <rect x="16" y="788" width="358" height="200" rx="8" stroke="#E8E0D0" stroke-width="1"/>

  <!-- Video Thumbnail -->
  <rect x="16" y="788" width="358" height="140" rx="8" fill="#5D4E37" fill-opacity="0.08"/>
  <rect x="16" y="920" width="358" height="8" fill="#FFFFFF"/>

  <!-- Play button -->
  <circle cx="195" cy="858" r="28" fill="#5D4E37" fill-opacity="0.8"/>
  <polygon points="188,846 188,870 208,858" fill="#FFFFFF"/>

  <!-- Duration badge -->
  <rect x="320" y="900" width="44" height="20" rx="4" fill="#5D4E37"/>
  <text x="342" y="914" fill="#FFFFFF" font-family="JetBrains Mono, monospace" font-size="10" text-anchor="middle">4:05</text>

  <!-- Distance badge - TERRACOTTA for farther -->
  <rect x="24" y="796" width="72" height="24" rx="4" fill="#C45D3E"/>
  <text x="60" y="812" fill="#FFFFFF" font-family="JetBrains Mono, monospace" font-size="10" font-weight="500" text-anchor="middle">65 km away</text>

  <!-- Language badge -->
  <rect x="104" y="796" width="52" height="24" rx="4" fill="#D4A84B"/>
  <text x="130" y="812" fill="#FFFFFF" font-family="Inter, sans-serif" font-size="10" font-weight="500" text-anchor="middle">हिन्दी</text>

  <!-- Video Info -->
  <text x="32" y="952" fill="#5D4E37" font-family="Playfair Display, Georgia, serif" font-size="14" font-weight="600">Chilli Fire King - Harvest Results</text>
  <text x="32" y="972" fill="#5D4E37" font-family="Inter, sans-serif" font-size="11" fill-opacity="0.7">Ahmednagar District | Farmer: Vijay Shinde</text>

  <!-- Videos from Other States Section -->
  <text x="20" y="1024" fill="#5D4E37" font-family="Playfair Display, Georgia, serif" font-size="16" font-weight="600">From Other Regions</text>

  <!-- Horizontal scroll hint -->
  <rect x="16" y="1040" width="172" height="120" rx="8" fill="#FFFFFF"/>
  <rect x="16" y="1040" width="172" height="120" rx="8" stroke="#E8E0D0" stroke-width="1"/>

  <rect x="16" y="1040" width="172" height="72" rx="8" fill="#5D4E37" fill-opacity="0.08"/>
  <circle cx="102" cy="1076" r="16" fill="#5D4E37" fill-opacity="0.6"/>
  <polygon points="98,1070 98,1082 108,1076" fill="#FFFFFF"/>

  <rect x="24" y="1048" width="72" height="20" rx="4" fill="#5D4E37" fill-opacity="0.7"/>
  <text x="60" y="1062" fill="#FFFFFF" font-family="JetBrains Mono, monospace" font-size="9" text-anchor="middle">420 km away</text>

  <text x="28" y="1132" fill="#5D4E37" font-family="Inter, sans-serif" font-size="11" font-weight="500">Karnataka - Kolar</text>
  <text x="28" y="1148" fill="#5D4E37" font-family="Inter, sans-serif" font-size="10" fill-opacity="0.6">Tomato farming</text>

  <!-- Card 2 -->
  <rect x="202" y="1040" width="172" height="120" rx="8" fill="#FFFFFF"/>
  <rect x="202" y="1040" width="172" height="120" rx="8" stroke="#E8E0D0" stroke-width="1"/>

  <rect x="202" y="1040" width="172" height="72" rx="8" fill="#5D4E37" fill-opacity="0.08"/>
  <circle cx="288" cy="1076" r="16" fill="#5D4E37" fill-opacity="0.6"/>
  <polygon points="284,1070 284,1082 294,1076" fill="#FFFFFF"/>

  <rect x="210" y="1048" width="72" height="20" rx="4" fill="#5D4E37" fill-opacity="0.7"/>
  <text x="246" y="1062" fill="#FFFFFF" font-family="JetBrains Mono, monospace" font-size="9" text-anchor="middle">680 km away</text>

  <text x="214" y="1132" fill="#5D4E37" font-family="Inter, sans-serif" font-size="11" font-weight="500">Andhra Pradesh</text>
  <text x="214" y="1148" fill="#5D4E37" font-family="Inter, sans-serif" font-size="10" fill-opacity="0.6">Chilli cultivation</text>

</svg>
