<?xml version="1.0" encoding="UTF-8"?>
<svg width="390" height="1000" viewBox="0 0 390 1000" fill="none" xmlns="http://www.w3.org/2000/svg">
  <!-- Background -->
  <rect width="390" height="1000" fill="#F5F0E6"/>

  <!-- Status Bar -->
  <rect width="390" height="44" fill="#5D4E37"/>
  <text x="20" y="28" fill="#F5F0E6" font-family="SF Pro, Inter, sans-serif" font-size="12" font-weight="500">9:41</text>
  <text x="340" y="28" fill="#F5F0E6" font-family="SF Pro, Inter, sans-serif" font-size="12" font-weight="500">85%</text>

  <!-- Header -->
  <rect y="44" width="390" height="56" fill="#FFFFFF"/>
  <rect y="99" width="390" height="1" fill="#E8E0D0"/>

  <!-- Back Button -->
  <polygon points="28,72 20,72 24,68 20,72 24,76" fill="#5D4E37"/>
  <text x="40" y="76" fill="#5D4E37" font-family="Inter, sans-serif" font-size="14">Back</text>

  <text x="195" y="76" fill="#5D4E37" font-family="Playfair Display, Georgia, serif" font-size="18" font-weight="600" text-anchor="middle">Checkout</text>

  <!-- Progress Steps -->
  <rect x="16" y="116" width="358" height="40" rx="4" fill="#FFFFFF"/>

  <!-- Step indicators -->
  <circle cx="80" cy="136" r="12" fill="#6B7B3C"/>
  <text x="80" y="140" fill="#FFFFFF" font-family="JetBrains Mono, monospace" font-size="10" font-weight="600" text-anchor="middle">1</text>
  <text x="80" y="156" fill="#6B7B3C" font-family="Inter, sans-serif" font-size="9" text-anchor="middle">Cart</text>

  <line x1="92" y1="136" x2="183" y2="136" stroke="#6B7B3C" stroke-width="2"/>

  <circle cx="195" cy="136" r="12" fill="#C45D3E"/>
  <text x="195" y="140" fill="#FFFFFF" font-family="JetBrains Mono, monospace" font-size="10" font-weight="600" text-anchor="middle">2</text>
  <text x="195" y="156" fill="#C45D3E" font-family="Inter, sans-serif" font-size="9" font-weight="500" text-anchor="middle">Payment</text>

  <line x1="207" y1="136" x2="298" y2="136" stroke="#E8E0D0" stroke-width="2"/>

  <circle cx="310" cy="136" r="12" fill="#E8E0D0"/>
  <text x="310" y="140" fill="#5D4E37" font-family="JetBrains Mono, monospace" font-size="10" font-weight="600" text-anchor="middle">3</text>
  <text x="310" y="156" fill="#5D4E37" font-family="Inter, sans-serif" font-size="9" fill-opacity="0.5" text-anchor="middle">Confirm</text>

  <!-- Order Summary -->
  <rect x="16" y="172" width="358" height="140" rx="8" fill="#FFFFFF"/>
  <rect x="16" y="172" width="358" height="140" rx="8" stroke="#E8E0D0" stroke-width="1"/>

  <text x="32" y="200" fill="#5D4E37" font-family="Inter, sans-serif" font-size="11" font-weight="500" letter-spacing="1">ORDER SUMMARY</text>

  <!-- Item 1 -->
  <rect x="32" y="216" width="40" height="40" rx="4" fill="#C45D3E" fill-opacity="0.1"/>
  <text x="52" y="240" fill="#C45D3E" font-family="Playfair Display, Georgia, serif" font-size="8" font-weight="600" text-anchor="middle">T</text>

  <text x="84" y="232" fill="#5D4E37" font-family="Inter, sans-serif" font-size="12" font-weight="500">Tomato Hybrid 512</text>
  <text x="84" y="250" fill="#5D4E37" font-family="Inter, sans-serif" font-size="11" fill-opacity="0.6">10g pack x 2</text>
  <text x="340" y="240" fill="#5D4E37" font-family="JetBrains Mono, monospace" font-size="12" font-weight="500" text-anchor="end">Rs 900</text>

  <!-- Divider -->
  <line x1="32" y1="268" x2="358" y2="268" stroke="#E8E0D0" stroke-width="1"/>

  <!-- Total -->
  <text x="32" y="292" fill="#5D4E37" font-family="Inter, sans-serif" font-size="12">Subtotal</text>
  <text x="340" y="292" fill="#5D4E37" font-family="JetBrains Mono, monospace" font-size="12" text-anchor="end">Rs 900</text>

  <text x="32" y="312" fill="#6B7B3C" font-family="Inter, sans-serif" font-size="12">Delivery</text>
  <text x="340" y="312" fill="#6B7B3C" font-family="JetBrains Mono, monospace" font-size="12" text-anchor="end">FREE</text>

  <!-- Delivery Address -->
  <rect x="16" y="328" width="358" height="88" rx="8" fill="#FFFFFF"/>
  <rect x="16" y="328" width="358" height="88" rx="8" stroke="#E8E0D0" stroke-width="1"/>

  <text x="32" y="356" fill="#5D4E37" font-family="Inter, sans-serif" font-size="11" font-weight="500" letter-spacing="1">DELIVERY ADDRESS</text>

  <text x="32" y="380" fill="#5D4E37" font-family="Inter, sans-serif" font-size="13" font-weight="500">Ramesh Patil</text>
  <text x="32" y="400" fill="#5D4E37" font-family="Inter, sans-serif" font-size="12" fill-opacity="0.7">Village Ozar, Taluka Sinnar, Nashik - 422103</text>

  <rect x="300" y="364" width="56" height="28" rx="4" fill="#D4A84B" fill-opacity="0.1"/>
  <text x="328" y="383" fill="#D4A84B" font-family="Inter, sans-serif" font-size="11" font-weight="500" text-anchor="middle">Edit</text>

  <!-- Payment Methods Section -->
  <text x="20" y="448" fill="#5D4E37" font-family="Playfair Display, Georgia, serif" font-size="16" font-weight="600">Select Payment Method</text>

  <!-- UPI Section -->
  <text x="20" y="480" fill="#5D4E37" font-family="Inter, sans-serif" font-size="11" font-weight="500" letter-spacing="1">UPI</text>

  <!-- Google Pay -->
  <rect x="16" y="496" width="358" height="64" rx="8" fill="#FFFFFF"/>
  <rect x="16" y="496" width="358" height="64" rx="8" stroke="#E8E0D0" stroke-width="1"/>

  <!-- Google Pay Logo representation -->
  <rect x="32" y="512" width="40" height="32" rx="4" fill="#FFFFFF" stroke="#E8E0D0" stroke-width="1"/>
  <text x="52" y="524" fill="#4285F4" font-family="Inter, sans-serif" font-size="8" font-weight="700" text-anchor="middle">G</text>
  <text x="52" y="536" fill="#5D4E37" font-family="Inter, sans-serif" font-size="6" text-anchor="middle">Pay</text>

  <text x="88" y="524" fill="#5D4E37" font-family="Inter, sans-serif" font-size="14" font-weight="500">Google Pay</text>
  <text x="88" y="544" fill="#5D4E37" font-family="Inter, sans-serif" font-size="11" fill-opacity="0.6">Pay using UPI</text>

  <!-- Radio button -->
  <circle cx="344" cy="528" r="10" fill="none" stroke="#C45D3E" stroke-width="2"/>
  <circle cx="344" cy="528" r="5" fill="#C45D3E"/>

  <!-- Paytm -->
  <rect x="16" y="572" width="358" height="64" rx="8" fill="#FFFFFF"/>
  <rect x="16" y="572" width="358" height="64" rx="8" stroke="#E8E0D0" stroke-width="1"/>

  <!-- Paytm Logo representation -->
  <rect x="32" y="588" width="40" height="32" rx="4" fill="#00BAF2" fill-opacity="0.1"/>
  <text x="52" y="610" fill="#00BAF2" font-family="Inter, sans-serif" font-size="10" font-weight="700" text-anchor="middle">Paytm</text>

  <text x="88" y="600" fill="#5D4E37" font-family="Inter, sans-serif" font-size="14" font-weight="500">Paytm</text>
  <text x="88" y="620" fill="#5D4E37" font-family="Inter, sans-serif" font-size="11" fill-opacity="0.6">Wallet or UPI</text>

  <!-- Radio button -->
  <circle cx="344" cy="604" r="10" fill="none" stroke="#E8E0D0" stroke-width="2"/>

  <!-- PhonePe -->
  <rect x="16" y="648" width="358" height="64" rx="8" fill="#FFFFFF"/>
  <rect x="16" y="648" width="358" height="64" rx="8" stroke="#E8E0D0" stroke-width="1"/>

  <!-- PhonePe Logo representation -->
  <rect x="32" y="664" width="40" height="32" rx="4" fill="#5F259F" fill-opacity="0.1"/>
  <text x="52" y="686" fill="#5F259F" font-family="Inter, sans-serif" font-size="9" font-weight="700" text-anchor="middle">PhonePe</text>

  <text x="88" y="676" fill="#5D4E37" font-family="Inter, sans-serif" font-size="14" font-weight="500">PhonePe</text>
  <text x="88" y="696" fill="#5D4E37" font-family="Inter, sans-serif" font-size="11" fill-opacity="0.6">Pay using UPI</text>

  <!-- Radio button -->
  <circle cx="344" cy="680" r="10" fill="none" stroke="#E8E0D0" stroke-width="2"/>

  <!-- Other UPI -->
  <rect x="16" y="724" width="358" height="64" rx="8" fill="#FFFFFF"/>
  <rect x="16" y="724" width="358" height="64" rx="8" stroke="#E8E0D0" stroke-width="1"/>

  <!-- UPI Icon -->
  <rect x="32" y="740" width="40" height="32" rx="4" fill="#5D4E37" fill-opacity="0.05"/>
  <text x="52" y="762" fill="#5D4E37" font-family="Inter, sans-serif" font-size="10" font-weight="600" text-anchor="middle">UPI</text>

  <text x="88" y="752" fill="#5D4E37" font-family="Inter, sans-serif" font-size="14" font-weight="500">Enter UPI ID</text>
  <text x="88" y="772" fill="#5D4E37" font-family="Inter, sans-serif" font-size="11" fill-opacity="0.6">name@bank or mobile@upi</text>

  <!-- Radio button -->
  <circle cx="344" cy="756" r="10" fill="none" stroke="#E8E0D0" stroke-width="2"/>

  <!-- Other Methods -->
  <text x="20" y="820" fill="#5D4E37" font-family="Inter, sans-serif" font-size="11" font-weight="500" letter-spacing="1">OTHER METHODS</text>

  <!-- Cash on Delivery -->
  <rect x="16" y="836" width="358" height="64" rx="8" fill="#FFFFFF"/>
  <rect x="16" y="836" width="358" height="64" rx="8" stroke="#E8E0D0" stroke-width="1"/>

  <rect x="32" y="852" width="40" height="32" rx="4" fill="#6B7B3C" fill-opacity="0.1"/>
  <text x="52" y="874" fill="#6B7B3C" font-family="Inter, sans-serif" font-size="10" font-weight="600" text-anchor="middle">COD</text>

  <text x="88" y="864" fill="#5D4E37" font-family="Inter, sans-serif" font-size="14" font-weight="500">Cash on Delivery</text>
  <text x="88" y="884" fill="#5D4E37" font-family="Inter, sans-serif" font-size="11" fill-opacity="0.6">Pay when you receive</text>

  <circle cx="344" cy="868" r="10" fill="none" stroke="#E8E0D0" stroke-width="2"/>

  <!-- Bottom CTA -->
  <rect y="920" width="390" height="80" fill="#FFFFFF"/>
  <rect y="920" width="390" height="1" fill="#E8E0D0"/>

  <!-- Total -->
  <text x="32" y="948" fill="#5D4E37" font-family="Inter, sans-serif" font-size="12" fill-opacity="0.6">Total Amount</text>
  <text x="32" y="972" fill="#5D4E37" font-family="JetBrains Mono, monospace" font-size="20" font-weight="600">Rs 900</text>

  <rect x="200" y="936" width="174" height="48" rx="8" fill="#C45D3E"/>
  <text x="287" y="966" fill="#FFFFFF" font-family="Inter, sans-serif" font-size="14" font-weight="600" text-anchor="middle">Pay with Google Pay</text>

</svg>
