<?xml version="1.0" encoding="UTF-8"?>
<svg width="390" height="844" viewBox="0 0 390 844" fill="none" xmlns="http://www.w3.org/2000/svg">
  <!-- Background with overlay -->
  <rect width="390" height="844" fill="#F5F0E6"/>
  <rect width="390" height="844" fill="#000000" fill-opacity="0.5"/>

  <!-- Paytm Bottom Sheet -->
  <rect y="240" width="390" height="604" rx="24" fill="#FFFFFF"/>

  <!-- Handle -->
  <rect x="171" y="252" width="48" height="4" rx="2" fill="#E8E0D0"/>

  <!-- Paytm Header -->
  <rect x="120" y="276" width="150" height="44" rx="8" fill="#00BAF2" fill-opacity="0.1"/>
  <text x="195" y="306" fill="#00BAF2" font-family="Inter, sans-serif" font-size="20" font-weight="700" text-anchor="middle">Paytm</text>

  <!-- Payment Amount -->
  <text x="195" y="356" fill="#5D4E37" font-family="Inter, sans-serif" font-size="14" fill-opacity="0.6" text-anchor="middle">Paying to</text>
  <text x="195" y="384" fill="#5D4E37" font-family="Playfair Display, Georgia, serif" font-size="18" font-weight="600" text-anchor="middle">Kisan Mitra Seeds Pvt Ltd</text>

  <text x="195" y="436" fill="#5D4E37" font-family="JetBrains Mono, monospace" font-size="44" font-weight="600" text-anchor="middle">Rs 900</text>

  <!-- Payment Options Tabs -->
  <rect x="32" y="472" width="326" height="44" rx="22" fill="#F5F0E6"/>

  <rect x="36" y="476" width="104" height="36" rx="18" fill="#00BAF2"/>
  <text x="88" y="500" fill="#FFFFFF" font-family="Inter, sans-serif" font-size="12" font-weight="500" text-anchor="middle">Wallet</text>

  <text x="195" y="500" fill="#5D4E37" font-family="Inter, sans-serif" font-size="12" text-anchor="middle">UPI</text>

  <text x="302" y="500" fill="#5D4E37" font-family="Inter, sans-serif" font-size="12" text-anchor="middle">Bank</text>

  <!-- Wallet Balance Section -->
  <rect x="32" y="532" width="326" height="100" rx="12" fill="#00BAF2" fill-opacity="0.05"/>
  <rect x="32" y="532" width="326" height="100" rx="12" stroke="#00BAF2" stroke-width="1"/>

  <text x="48" y="560" fill="#5D4E37" font-family="Inter, sans-serif" font-size="11" font-weight="500" letter-spacing="1">PAYTM WALLET BALANCE</text>

  <text x="48" y="596" fill="#00BAF2" font-family="JetBrains Mono, monospace" font-size="28" font-weight="600">Rs 2,450</text>

  <!-- Sufficient balance indicator -->
  <rect x="180" y="580" width="80" height="24" rx="4" fill="#6B7B3C" fill-opacity="0.1"/>
  <text x="220" y="597" fill="#6B7B3C" font-family="Inter, sans-serif" font-size="10" font-weight="500" text-anchor="middle">Sufficient</text>

  <!-- After payment note -->
  <text x="48" y="622" fill="#5D4E37" font-family="Inter, sans-serif" font-size="11" fill-opacity="0.6">Balance after payment: Rs 1,550</text>

  <!-- Order Info -->
  <rect x="32" y="648" width="326" height="72" rx="8" fill="#FFFFFF" stroke="#E8E0D0" stroke-width="1"/>

  <text x="48" y="676" fill="#5D4E37" font-family="Inter, sans-serif" font-size="11" font-weight="500">Order Details</text>
  <text x="48" y="700" fill="#5D4E37" font-family="Inter, sans-serif" font-size="12" fill-opacity="0.7">Tomato Hybrid 512 x 2 | Order #KM2024121001</text>

  <!-- Cashback Banner -->
  <rect x="32" y="736" width="326" height="48" rx="8" fill="#D4A84B" fill-opacity="0.1"/>
  <rect x="32" y="736" width="4" height="48" rx="2" fill="#D4A84B"/>

  <text x="48" y="764" fill="#D4A84B" font-family="Inter, sans-serif" font-size="12" font-weight="500">Earn Rs 45 cashback on this order!</text>
  <text x="324" y="764" fill="#D4A84B" font-family="Inter, sans-serif" font-size="10" text-anchor="end">5% back</text>

  <!-- Pay Button -->
  <rect x="32" y="800" width="326" height="52" rx="26" fill="#00BAF2"/>
  <text x="195" y="834" fill="#FFFFFF" font-family="Inter, sans-serif" font-size="16" font-weight="600" text-anchor="middle">Pay Rs 900 from Wallet</text>

  <!-- Security Footer -->
  <rect x="140" y="864" width="110" height="24" rx="4" fill="#F5F0E6"/>
  <text x="195" y="881" fill="#5D4E37" font-family="Inter, sans-serif" font-size="10" fill-opacity="0.5" text-anchor="middle">100% Secure Payment</text>

</svg>
